Coordinates
datacolumns 6
datarows 121
range 20.01 21.21
inDegrees=yes
Units are S.I. units (second, meters, Newtons, ...)
If the header above contains a line with 'inDegrees', this indicates whether rotational values are in degrees (yes) or radians (no).
endheader
time	foot_tx	hip_flexion_r	knee_angle_r	ankle_angle_r	lumbar
20.01	0.24645865	56.32011388	-86.9454314	6.12011014	-36.75374884
20.02	0.24646499	56.45555774	-86.97103061	6.15131583	-36.87990822
20.03	0.2464763	56.60295305	-87.00027318	6.18373615	-37.01706559
20.04	0.24648957	56.76202427	-87.03235961	6.21724341	-37.16561714
20.05	0.24650176	56.93258128	-87.06618955	6.25150466	-37.32592875
20.06	0.24653279	57.145876	-87.09858907	6.27978758	-37.46741919
20.07	0.2465452	57.33627658	-87.12960222	6.3122496	-37.65646671
20.08	0.24655947	57.53591419	-87.15700613	6.34251896	-37.86095707
20.09	0.24657015	57.74697617	-87.18024479	6.37051007	-38.07954339
20.1	0.24657371	57.97059114	-87.19905376	6.39616143	-38.31200439
20.11	0.24656961	58.20834229	-87.21303582	6.41900972	-38.55800489
20.12	0.24655796	58.46216435	-87.2219441	6.43865129	-38.81713055
20.13	0.24653916	58.733592	-87.22597286	6.4550986	-39.08900079
20.14	0.24651469	59.02371852	-87.22565546	6.46866284	-39.37306658
20.15	0.24648323	59.33315856	-87.22172282	6.48004694	-39.66911946
20.16	0.24644949	59.6616576	-87.21451993	6.48951726	-39.97730513
20.17	0.24641077	60.00932648	-87.20510269	6.49816293	-40.29745838
20.18	0.24636382	60.42523756	-87.19928712	6.50444717	-40.57780429
20.19	0.24631537	60.803057	-87.18776722	6.51470853	-40.9295629
20.2	0.24626224	61.24872284	-87.18090626	6.52364592	-41.24153447
20.21	0.24620811	61.65972678	-87.17020295	6.5380082	-41.62080342
20.22	0.24615065	62.17021381	-87.16778236	6.55037295	-41.92662201
20.23	0.24609529	62.67428691	-87.16424541	6.5676667	-42.26895485
20.24	0.24604546	63.20834895	-87.16326237	6.58809375	-42.60883176
20.25	0.24600367	63.77303728	-87.1641622	6.61212805	-42.94429345
20.26	0.24597145	64.3678787	-87.16706916	6.64035845	-43.27391479
20.27	0.2459462	64.99745338	-87.17252124	6.67336544	-43.5910222
20.28	0.24592446	65.66398528	-87.18113286	6.71178922	-43.8909524
20.29	0.24589829	66.37574574	-87.19427922	6.75615354	-44.16225028
20.3	0.24585396	67.14038264	-87.21354021	6.80771922	-44.39283315
20.31	0.24578419	67.96494351	-87.23954307	6.86763025	-44.56913091
20.32	0.24567895	68.84246216	-87.27380072	6.94035763	-44.68888638
20.33	0.24555078	69.77002045	-87.31359867	7.02664267	-44.74567493
20.34	0.24541131	70.73976885	-87.35731351	7.12836631	-44.73842681
20.35	0.2452524	71.74591218	-87.40698486	7.24992498	-44.66454447
20.36	0.24511234	72.77794459	-87.45437628	7.38666778	-44.53235286
20.37	0.2449657	73.83182306	-87.50690825	7.54623057	-44.33944082
20.38	0.24484752	74.89987776	-87.55736525	7.72393709	-44.09417159
20.39	0.24476021	75.97137387	-87.60628768	7.9213619	-43.80626547
20.4	0.24471527	77.04471207	-87.65025909	8.13639065	-43.47767536
20.41	0.24471244	78.11338359	-87.68731821	8.368136	-43.11503663
20.42	0.24474693	79.1722342	-87.71514183	8.61516725	-42.72350975
20.43	0.2448101	80.22057809	-87.73287195	8.8763209	-42.30285281
20.44	0.24490406	81.24206127	-87.73581647	9.14810601	-41.87317383
20.45	0.24500989	82.2414889	-87.72507465	9.42990247	-41.42795286
20.46	0.24512681	83.20917729	-87.69919084	9.7189426	-40.97968537
20.47	0.24525018	84.13625593	-87.65766309	10.01339297	-40.53947688
20.48	0.24538179	85.01509286	-87.60059571	10.31086648	-40.11670607
20.49	0.24552276	85.83334316	-87.52903774	10.60996971	-39.72487481
20.5	0.24567651	86.57022281	-87.44631514	10.91135331	-39.38573853
20.51	0.2458431	87.21903652	-87.35341664	11.2132886	-39.10365813
20.52	0.24601829	87.76653939	-87.25277479	11.51641342	-38.888147
20.53	0.24620845	88.19782024	-87.14403425	11.81970024	-38.7522457
20.54	0.24639543	88.51284824	-87.02721906	12.1240767	-38.68633911
20.55	0.24657829	88.71048113	-86.90003847	12.42856829	-38.68540003
20.56	0.24675273	88.79859868	-86.75880539	12.73148808	-38.73395502
20.57	0.24691819	88.78871328	-86.59892587	13.03029671	-38.81501927
20.58	0.247073	88.69290216	-86.41612241	13.32295709	-38.9119517
20.59	0.24721581	88.5221965	-86.20540854	13.60684438	-39.01344778
20.6	0.24734949	88.2866843	-85.96188887	13.87919609	-39.11008206
20.61	0.24746246	88.00379521	-85.6832345	14.13920678	-39.18460141
20.62	0.24756699	87.67995908	-85.36304572	14.38246076	-39.23443043
20.63	0.24766064	87.32623115	-84.99859701	14.60741397	-39.25029584
20.64	0.24774682	86.94783224	-84.58674402	14.81213875	-39.22966217
20.65	0.24783441	86.55265758	-84.12426716	14.99345723	-39.16699055
20.66	0.24790937	86.13641045	-83.61269729	15.15370424	-39.06794018
20.67	0.24799384	85.7038986	-83.04989654	15.28919739	-38.93149248
20.68	0.24807227	85.25293549	-82.43843525	15.40199072	-38.76035798
20.69	0.24815577	84.7837325	-81.77973367	15.49100216	-38.5569528
20.7	0.24823644	84.29176713	-81.07751395	15.55854211	-38.32719123
20.71	0.24831695	83.77378596	-80.33172115	15.60360638	-38.07711385
20.72	0.24839924	83.23257513	-79.54619541	15.62729463	-37.80282389
20.73	0.24847464	82.65778632	-78.72385619	15.63209918	-37.51753806
20.74	0.24854232	82.05182917	-77.86600187	15.61815767	-37.21984395
20.75	0.24860054	81.41179298	-76.97587059	15.58751363	-36.9132565
20.76	0.24865205	80.74174236	-76.05503639	15.54037965	-36.59433835
20.77	0.2487039	80.04160446	-75.1067443	15.47797354	-36.26448616
20.78	0.24875601	79.31079321	-74.13180223	15.40097081	-35.92633724
20.79	0.24880941	78.54191147	-73.1322164	15.31127851	-35.58931591
20.8	0.24886533	77.73170587	-72.10919059	15.20969171	-35.25906009
20.81	0.24892514	76.86963987	-71.06528741	15.09843596	-34.94839499
20.82	0.24898967	75.95289917	-70.0020289	14.97830482	-34.6624031
20.83	0.24905481	74.98258162	-68.92079092	14.85013347	-34.40214722
20.84	0.24912607	73.95342427	-67.82522099	14.715654	-34.17482444
20.85	0.24920301	72.87321533	-66.71786803	14.57533371	-33.9741077
20.86	0.24928787	71.7521365	-65.60284975	14.42992861	-33.7910327
20.87	0.24938214	70.60236165	-64.48454955	14.28025708	-33.61471129
20.88	0.24948855	69.43886465	-63.36646654	14.12650448	-33.43093731
20.89	0.24960783	68.26532941	-62.25072746	13.96943348	-33.23791487
20.9	0.24974451	67.08491782	-61.13792555	13.80884637	-33.03418059
20.91	0.24989763	65.89623507	-60.02864928	13.64551881	-32.82302701
20.92	0.2500688	64.69898056	-58.92274868	13.47950195	-32.60633442
20.93	0.25025453	63.49382925	-57.81955796	13.31082101	-32.38466723
20.94	0.25045189	62.28039044	-56.71888049	13.13986164	-32.15939203
20.95	0.25065487	61.05627496	-55.62143279	12.96799764	-31.93386062
20.96	0.25086533	59.82602779	-54.52488639	12.79342816	-31.70326314
20.97	0.25107649	58.58906516	-53.42964607	12.61729413	-31.46867815
20.98	0.25128858	57.34689813	-52.33388177	12.43860485	-31.22854213
20.99	0.25150083	56.09857869	-51.23597691	12.25684423	-30.98374792
21	0.25171357	54.84624133	-50.13453442	12.07125474	-30.73167357
21.01	0.25192589	53.58800259	-49.02847273	11.88161186	-30.47439551
21.02	0.25213673	52.32324214	-47.91709058	11.68770987	-30.21297433
21.03	0.25234589	51.05407566	-46.80025291	11.4892953	-29.94569159
21.04	0.25255389	49.78275876	-45.67790342	11.28608336	-29.67064555
21.05	0.25276612	48.51813061	-44.54908699	11.07630378	-29.37873377
21.06	0.25297774	47.25317092	-43.41515213	10.86168531	-29.07811686
21.07	0.2531937	45.99646876	-42.27571877	10.64075573	-28.76020591
21.08	0.25341483	44.75086625	-41.13125125	10.41322527	-28.42305325
21.09	0.25364052	43.51981165	-39.98232903	10.17874829	-28.06436081
21.1	0.2538672	42.30706665	-38.83028321	9.93735368	-27.68268034
21.11	0.25408787	41.11644357	-37.67797857	9.69065418	-27.27412331
21.12	0.25429613	39.94476638	-36.52705619	9.43966187	-26.84627259
21.13	0.25448534	38.79013052	-35.3810173	9.187209	-26.40193947
21.14	0.25465474	37.65636661	-34.24305795	8.93528813	-25.93690513
21.15	0.25480119	36.53731852	-33.11702681	8.68717804	-25.45817773
21.16	0.25492785	35.43635667	-32.00563305	8.44366784	-24.96641415
21.17	0.25503724	34.35543083	-30.91123369	8.2055986	-24.46161145
21.18	0.25513011	33.29403807	-29.83629261	7.97392553	-23.94798546
21.19	0.25521035	32.2604592	-28.78273674	7.74826504	-23.42040153
21.2	0.25528039	31.25588845	-27.75230837	7.52888875	-22.88104327
21.21	0.25534188	30.28261849	-26.74797223	7.31684545	-22.3307401
